<svg height="512pt" viewBox="-37 0 512 512" width="512pt" xmlns="http://www.w3.org/2000/svg"><path d="m306.023438 281.046875h-10.523438c25.511719-22.289063 41.652344-55.042969 41.652344-91.5v-159.546875h27.847656v86h30v-86h26.5v-30h-405v30h77.652344v159.546875c0 36.457031 16.144531 69.210937 41.652344 91.5h-3.828126c-72.773437 0-131.976562 59.207031-131.976562 131.976563v98.976562h438v-98.976562c0-72.769532-59.203125-131.976563-131.976562-131.976563zm1.128906-251.046875v99h-183v-99zm-183 159.546875v-30.546875h183v30.546875c0 50.453125-41.046875 91.5-91.5 91.5s-91.5-41.046875-91.5-91.5zm158.242187 121.5-63.394531 85.726563-63.394531-85.726563zm125.605469 170.953125h-378v-68.976562c0-51.800782 38.828125-94.707032 88.90625-101.140626l100.09375 135.34375 100.09375-135.34375c50.078125 6.433594 88.90625 49.339844 88.90625 101.140626zm0 0"/></svg>